Coordinates
version=1
nRows=12
nColumns=24
inDegrees=yes

Units are S.I. units (second, meters, Newtons, ...)
Angles are in degrees.

endheader
time	pelvis_tilt	pelvis_list	pelvis_rotation	pelvis_tx	pelvis_ty	pelvis_tz	hip_flexion_r	hip_adduction_r	hip_rotation_r	knee_angle_r	ankle_angle_r	subtalar_angle_r	mtp_angle_r	hip_flexion_l	hip_adduction_l	hip_rotation_l	knee_angle_l	ankle_angle_l	subtalar_angle_l	mtp_angle_l	lumbar_extension	lumbar_bending	lumbar_rotation
      0.81650000	     -0.95268023	     -1.61787323	      1.14489155	     -0.47191649	      0.99807335	      0.32081440	     13.36747867	      5.42226387	      1.15661778	    -21.83667169	     12.35171118	    -12.16170769	     -0.03380994	     15.56462025	     -2.49982486	     -4.46862082	    -71.60137209	     -8.46649184	    -10.36086421	      1.85561067	    -11.30445057	      9.64094249	     -1.33091017
      0.82066667	     -0.86684516	     -1.45821615	      1.13092772	     -0.46709687	      0.99918748	      0.32111657	     12.75834535	      5.29296453	      1.28130624	    -21.41496883	     12.40569568	    -12.21212494	     -0.03996216	     16.05553720	     -2.40668113	     -4.57722451	    -71.48337335	     -8.07384303	    -10.72173360	      1.83264104	    -11.47449405	      9.32445690	     -0.88131464
      0.82483333	     -0.81398478	     -1.31095188	      1.12170683	     -0.46226305	      1.00021325	      0.32139681	     12.18267694	      5.17020507	      1.38161862	    -20.98884127	     12.46506221	    -12.24110813	     -0.04665272	     16.57510376	     -2.32325309	     -4.67613912	    -71.32668892	     -7.63675882	    -11.01519497	      1.80077102	    -11.57266557	      9.06280342	     -0.58032005
      0.82900000	     -0.76186439	     -1.15314116	      1.10863614	     -0.45742306	      1.00123352	      0.32167080	     11.60273921	      5.03377344	      1.47950831	    -20.55244497	     12.51967773	    -12.26399152	     -0.05370565	     17.07955630	     -2.22411766	     -4.77564744	    -71.10782066	     -7.22779919	    -11.30059863	      1.76118660	    -11.66550580	      8.79030753	     -0.30129107
      0.83316667	     -0.69473998	     -0.98748783	      1.08923650	     -0.45258380	      1.00223360	      0.32193594	     11.00734983	      4.88591190	      1.56816722	    -20.11817340	     12.58327790	    -12.26295725	     -0.06140875	     17.55352499	     -2.11454377	     -4.87949522	    -70.83734655	     -6.81112173	    -11.55295308	      1.71390180	    -11.77499498	      8.51306451	     -0.01776832
      0.83733333	     -0.64740132	     -0.82889148	      1.06664469	     -0.44774733	      1.00318039	      0.32219714	     10.42987413	      4.74314255	      1.65405842	    -19.67340745	     12.63741668	    -12.26266296	     -0.06999901	     18.03826466	     -2.00972338	     -4.97888403	    -70.51882871	     -6.39922412	    -11.77897848	      1.65878822	    -11.86275559	      8.24390923	      0.26642761
      0.84150000	     -0.59267628	     -0.65697001	      1.04137933	     -0.44290996	      1.00410373	      0.32244693	      9.84582175	      4.58227516	      1.72913683	    -19.23260001	     12.69898091	    -12.24320869	     -0.07877927	     18.50002733	     -1.88701030	     -5.07971295	    -70.14588831	     -5.98724238	    -11.97780986	      1.60151731	    -11.95360587	      7.96021360	      0.53724551
      0.84566667	     -0.52696872	     -0.48652479	      1.01757551	     -0.43807688	      1.00501745	      0.32267150	      9.24801788	      4.41812512	      1.78669699	    -18.78530587	     12.75773698	    -12.20961101	     -0.08760004	     18.93606791	     -1.76020102	     -5.17265270	    -69.72103355	     -5.57359255	    -12.14393399	      1.54608533	    -12.06069690	      7.68273135	      0.78974835
      0.84983333	     -0.48618989	     -0.31703877	      0.99327442	     -0.43324219	      1.00585139	      0.32288998	      8.67762518	      4.25280152	      1.84419639	    -18.33950698	     12.81891787	    -12.16987190	     -0.09731095	     19.38851568	     -1.62969474	     -5.25808744	    -69.25232259	     -5.15722946	    -12.28012184	      1.48552696	    -12.13866975	      7.40465475	      1.05574672
      0.85400000	     -0.47477144	     -0.15911646	      0.97088002	     -0.42840752	      1.00659134	      0.32307432	      8.14760901	      4.09172367	      1.86281153	    -17.90836901	     12.85389657	    -12.11356284	     -0.10247155	     19.86268383	     -1.50624296	     -5.33614496	    -68.74473995	     -4.71331697	    -12.41048543	      1.46059046	    -12.15879562	      7.17022905	      1.19524092
      0.85816667	     -0.40039527	      0.01526321	      0.94775019	     -0.42360772	      1.00739479	      0.32326039	      7.53777128	      3.91616884	      1.91800130	    -17.44929767	     12.92300581	    -12.04894934	     -0.11073092	     20.25221346	     -1.35490012	     -5.39456143	    -68.17534369	     -4.29224134	    -12.45824228	      1.41153918	    -12.30530412	      6.88825952	      1.48376897
      0.86233333	     -0.37507401	      0.15950159	      0.92626270	     -0.41877379	      1.00806907	      0.32342292	      6.98350663	      3.76723341	      1.94056809	    -16.99701901	     12.97256885	    -11.98870673	     -0.11916578	     20.68540524	     -1.23697560	     -5.45109310	    -67.57468587	     -3.85186855	    -12.49228270	      1.36451425	    -12.35967454	      6.65573492	      1.72955466
